<svg width="88" height="30" viewBox="0 0 88 30" fill="none" xmlns="http://www.w3.org/2000/svg">
<path d="M8.50481 3.75C12.524 1.42949 17.476 1.42949 21.4952 3.75V3.75C25.5144 6.07051 27.9904 10.359 27.9904 15V15C27.9904 19.641 25.5144 23.9295 21.4952 26.25V26.25C17.476 28.5705 12.524 28.5705 8.50481 26.25V26.25C4.48557 23.9295 2.00962 19.641 2.00962 15V15C2.00962 10.359 4.48557 6.07051 8.50481 3.75V3.75Z" fill="#1061FF"/>
<mask id="mask0_13052_1921" style="mask-type:alpha" maskUnits="userSpaceOnUse" x="2" y="2" width="26" height="26">
<path d="M8.50481 3.75C12.524 1.42949 17.476 1.42949 21.4952 3.75V3.75C25.5144 6.07051 27.9904 10.359 27.9904 15V15C27.9904 19.641 25.5144 23.9295 21.4952 26.25V26.25C17.476 28.5705 12.524 28.5705 8.50481 26.25V26.25C4.48557 23.9295 2.00962 19.641 2.00962 15V15C2.00962 10.359 4.48557 6.07051 8.50481 3.75V3.75Z" fill="#1061FF"/>
</mask>
<g mask="url(#mask0_13052_1921)">
<path d="M30 19.8193V16.8193H22.74C21.8292 16.8123 20.9402 16.5406 20.1811 16.0372C19.4221 15.5338 18.8258 14.8206 18.465 13.9843L17.145 10.9843C17.019 10.6838 16.8045 10.4288 16.5301 10.2532C16.2557 10.0776 15.9344 9.98959 15.6087 10.001C15.2831 10.0124 14.9687 10.1226 14.7073 10.317C14.4458 10.5114 14.2497 10.7808 14.145 11.0893L11.145 19.6393C11.047 19.9507 10.8564 20.2248 10.5986 20.4251C10.3408 20.6254 10.0281 20.7423 9.70211 20.7602C9.37615 20.7781 9.05247 20.6962 8.77425 20.5254C8.49604 20.3546 8.27653 20.1031 8.145 19.8043L7.665 18.7993C7.29081 17.9947 6.69626 17.3126 5.95025 16.832C5.20424 16.3515 4.33734 16.0922 3.45 16.0843H5.7039e-08V19.8193C-0.000265879 22.183 0.929392 24.452 2.58813 26.136C4.24687 27.82 6.50152 28.7838 8.865 28.8193H21.225C23.5727 28.7606 25.8045 27.7865 27.444 26.105C29.0835 24.4235 30.0007 22.1678 30 19.8193V19.8193Z" fill="#CEDFFF"/>
</g>
<path d="M37.056 18.46C37.056 17.564 37.4027 15.26 38.096 11.548L37.2 10.268C37.8613 9.87333 38.416 9.58 38.864 9.388C39.3227 9.196 39.776 9.1 40.224 9.1C40.6827 9.1 41.0187 9.19067 41.232 9.372C41.4453 9.55333 41.552 9.84133 41.552 10.236C41.552 10.9187 41.344 12.2573 40.928 14.252L41.088 14.332C41.856 12.8067 42.976 12.044 44.448 12.044C45.28 12.044 45.9307 12.4013 46.4 13.116C46.8693 13.82 47.104 14.6787 47.104 15.692C47.104 16.6947 46.9013 17.6013 46.496 18.412C46.1013 19.212 45.584 19.8627 44.944 20.364C44.3147 20.8547 43.6267 21.2333 42.88 21.5C42.1333 21.7667 41.392 21.9 40.656 21.9C39.4507 21.9 38.5493 21.6227 37.952 21.068C37.3547 20.5133 37.056 19.644 37.056 18.46ZM40.224 20.044C41.408 20.044 42.368 19.6387 43.104 18.828C43.8507 18.0173 44.224 17.1107 44.224 16.108C44.224 15.6493 44.096 15.2333 43.84 14.86C43.5947 14.4867 43.2693 14.3 42.864 14.3C42.4587 14.3 42.08 14.4653 41.728 14.796C41.3867 15.1267 41.12 15.5213 40.928 15.98C40.7467 16.4387 40.5973 16.956 40.48 17.532C40.3093 18.4387 40.224 19.276 40.224 20.044ZM50.5321 11.548L49.6361 10.268C50.9695 9.48933 52.0201 9.1 52.7881 9.1C53.2255 9.1 53.5348 9.19067 53.7161 9.372C53.8975 9.54267 53.9881 9.87333 53.9881 10.364C53.9881 10.844 53.7481 12.2093 53.2681 14.46C52.7988 16.7107 52.5641 18.2893 52.5641 19.196C52.5641 20.1027 52.7295 20.7427 53.0601 21.116C52.3135 21.6387 51.6361 21.9 51.0281 21.9C50.4201 21.9 49.9721 21.7027 49.6841 21.308C49.4068 20.9027 49.2681 20.348 49.2681 19.644C49.2681 18.94 49.4655 17.5 49.8601 15.324C50.2548 13.148 50.4788 11.8893 50.5321 11.548ZM61.4564 19.532L61.2964 19.452C61.0084 20.22 60.5924 20.8227 60.0484 21.26C59.515 21.6867 58.9177 21.9 58.2564 21.9C57.3497 21.9 56.6244 21.5587 56.0804 20.876C55.5364 20.1933 55.2644 19.2813 55.2644 18.14C55.2644 16.3693 55.8564 14.8867 57.0404 13.692C58.235 12.4973 59.7177 11.9 61.4884 11.9C61.947 11.9 62.3684 11.9427 62.7524 12.028C62.8164 12.3267 62.8537 12.588 62.8644 12.812C63.3977 12.4707 63.947 12.3 64.5124 12.3C65.291 12.3 65.6804 12.7213 65.6804 13.564C65.6804 13.8627 65.5097 14.764 65.1684 16.268C64.8377 17.772 64.6724 18.8867 64.6724 19.612C64.6724 20.3373 64.8377 20.8387 65.1684 21.116C64.571 21.6387 63.947 21.9 63.2964 21.9C62.6564 21.9 62.187 21.708 61.8884 21.324C61.6004 20.94 61.4564 20.3427 61.4564 19.532ZM58.2724 17.356C58.2724 17.8787 58.379 18.284 58.5924 18.572C58.8164 18.8493 59.131 18.988 59.5364 18.988C59.9417 18.988 60.3417 18.8387 60.7364 18.54C61.131 18.2413 61.4617 17.8307 61.7284 17.308C61.8244 16.2307 62.0324 14.956 62.3524 13.484C61.275 13.484 60.3257 13.8733 59.5044 14.652C58.683 15.4307 58.2724 16.332 58.2724 17.356ZM70.2456 21.1C69.659 21.5587 69.099 21.788 68.5656 21.788C68.0323 21.788 67.6323 21.6387 67.3656 21.34C67.099 21.0413 66.9656 20.668 66.9656 20.22C66.9656 19.7613 67.131 19.34 67.4616 18.956C67.7923 18.572 68.2616 18.3427 68.8696 18.268L71.4936 15.484C70.171 15.4413 69.259 15.244 68.7576 14.892C68.2563 14.54 68.0056 14.0013 68.0056 13.276C68.0056 12.988 68.0643 12.5027 68.1816 11.82C68.8963 12.1187 69.723 12.3907 70.6616 12.636C71.6003 12.8707 72.3363 12.9987 72.8696 13.02C73.0403 12.6893 73.291 12.4227 73.6216 12.22C73.963 12.0067 74.363 11.9 74.8216 11.9C75.291 11.9 75.6696 12.0387 75.9576 12.316C76.2456 12.5933 76.3896 12.956 76.3896 13.404C76.3896 14.1827 76.0003 14.7427 75.2216 15.084L71.9096 18.876C72.603 19.0893 73.1523 19.2013 73.5576 19.212L75.7336 18.364C75.9576 18.94 76.0696 19.4893 76.0696 20.012C76.0696 20.524 75.8243 20.9667 75.3336 21.34C74.843 21.7133 74.251 21.9 73.5576 21.9C72.8643 21.9 72.1336 21.7667 71.3656 21.5C71.099 21.4147 70.7256 21.2813 70.2456 21.1ZM82.326 21.9C80.8647 21.9 79.734 21.5213 78.934 20.764C78.1447 20.0067 77.75 18.9827 77.75 17.692C77.75 15.9747 78.3367 14.5827 79.51 13.516C80.694 12.4387 82.1767 11.9 83.958 11.9C84.95 11.9 85.702 12.124 86.214 12.572C86.726 13.0093 86.982 13.5907 86.982 14.316C86.982 15.308 86.4967 16.1347 85.526 16.796C84.566 17.4467 83.078 17.7773 81.062 17.788C81.094 18.4707 81.2487 19.0093 81.526 19.404C81.8033 19.788 82.15 19.98 82.566 19.98C82.982 19.98 83.3393 19.8413 83.638 19.564C83.9473 19.2867 84.102 18.8333 84.102 18.204C85.6593 18.204 86.438 18.572 86.438 19.308C86.438 19.9373 86.054 20.5293 85.286 21.084C84.518 21.628 83.5313 21.9 82.326 21.9ZM83.686 13.772C83.142 13.772 82.6407 14.044 82.182 14.588C81.734 15.132 81.4087 15.772 81.206 16.508C82.2727 16.4227 83.0727 16.1827 83.606 15.788C84.15 15.3827 84.422 14.956 84.422 14.508C84.422 14.2947 84.3527 14.1187 84.214 13.98C84.086 13.8413 83.91 13.772 83.686 13.772Z" fill="#0D151E"/>
</svg>
